<svg width="148" height="40" viewBox="0 0 148 40" fill="none" xmlns="http://www.w3.org/2000/svg">
<g clip-path="url(#clip0_1999_1999)">
<path d="M20.3078 16.0527C18.3918 16.5654 16.0594 17.5813 14.0512 18.7775C12.8308 19.5044 10.1924 21.284 9.50447 21.8445C8.57864 22.5983 8.18084 23.2439 8.25227 23.8775C8.29787 24.2846 8.51436 24.5434 8.99897 24.7703C9.49732 25.0038 10.1231 25.0709 10.6462 24.9467C11.3204 24.7868 14.2264 23.4159 15.7319 22.5472C16.6363 22.0253 17.8512 21.2269 18.8341 20.5082C19.255 20.2005 19.9627 19.6967 20.4056 19.3884C21.421 18.6829 21.6242 18.484 21.8056 18.0176C22.0094 17.4934 22.021 16.6588 21.8286 16.4011C21.4863 15.9417 21.0731 15.8472 20.3078 16.0522V16.0527Z" fill="#2D71F3"/>
<path d="M25.8571 13.65C25.7499 13.6769 25.4933 13.7022 25.2873 13.7066C25.0807 13.711 24.8032 13.7594 24.6708 13.8149C24.1082 14.0495 23.5994 14.7852 23.5906 15.3764C23.5812 16.0132 23.8439 16.239 24.6576 16.2951C25.1032 16.3258 25.2241 16.3066 25.7669 16.1198C26.1021 16.0044 26.4395 15.8522 26.5158 15.7813C26.6752 15.6346 26.8636 14.9638 26.8631 14.5456C26.8631 13.9588 26.3713 13.522 25.8576 13.6506L25.8571 13.65Z" fill="#2D71F3"/>
<path fill-rule="evenodd" clip-rule="evenodd" d="M1.77575 8.61978C4.11311 4.04505 8.46201 0.89725 13.5252 0.115382C14.3867 -0.0175855 17.39 -0.0181355 18.2873 0.114832C24.9461 1.10055 30.2785 6.24395 31.5461 12.9022C31.7181 13.8049 31.7911 16.7516 31.6675 17.8165C31.1318 22.4527 28.3801 26.7385 24.2878 29.3121C22.5203 30.4236 20.3433 31.2017 17.9384 31.5813C17.6296 31.6302 14.6884 31.6615 8.76861 31.6797L0.0532227 31.7066L0.0762995 22.8566L0.0993763 14.0066L0.270255 13.0972C0.582343 11.4352 1.05377 10.033 1.77575 8.61978ZM18.5878 1.30989C18.3378 1.27033 17.9752 1.21044 17.7818 1.17692C17.3433 1.1011 14.4834 1.11099 14.0444 1.18956C13.8659 1.22142 13.5301 1.27747 13.2983 1.31428C12.745 1.40164 11.5439 1.68901 11.401 1.76813C11.3389 1.80219 11.245 1.83022 11.1922 1.83022C11.1395 1.83022 10.9922 1.88846 10.8648 1.95989C10.7378 2.03132 10.5966 2.08956 10.551 2.08956C10.4538 2.08956 8.53674 3.0478 8.26201 3.23351C8.15872 3.30329 8.00157 3.39725 7.91201 3.44176C7.74663 3.52472 7.06641 4.01758 6.55102 4.42692C6.07795 4.80329 4.93015 5.92912 4.64333 6.2989C4.49553 6.48956 4.2785 6.76703 4.16146 6.91593C3.64828 7.56648 3.23894 8.23571 2.70597 9.29395C2.39223 9.91703 2.13564 10.4643 2.13564 10.5093C2.13564 10.5544 2.0774 10.6956 2.00597 10.8231C1.93454 10.95 1.8763 11.0978 1.8763 11.1505C1.8763 11.2033 1.84828 11.2978 1.81421 11.3599C1.72795 11.5159 1.44663 12.7099 1.32135 13.4533C1.26421 13.7929 1.19004 14.0978 1.15762 14.1319C1.08399 14.2082 1.08344 29.8451 1.15762 30.2945C1.18619 30.4676 1.24993 30.6357 1.29993 30.6676C1.42685 30.7489 16.734 30.6945 17.5186 30.6099C17.8576 30.5731 18.5005 30.4643 18.9466 30.3676C19.3928 30.2709 19.8384 30.1769 19.9373 30.1593C20.0356 30.1418 20.1323 30.1011 20.1521 30.0698C20.1719 30.0379 20.2571 30.0121 20.3422 30.0121C20.4274 30.0121 20.5148 29.983 20.5367 29.9473C20.5587 29.9115 20.6466 29.8824 20.7312 29.8824C20.8159 29.8824 20.9038 29.8533 20.9257 29.8176C20.9477 29.7819 21.0186 29.7527 21.0829 29.7527C21.1472 29.7527 21.4268 29.6357 21.7049 29.4929C21.9823 29.35 22.2516 29.233 22.3027 29.233C22.3538 29.233 22.5175 29.1516 22.667 29.0522C22.8164 28.9527 23.0257 28.8297 23.1329 28.778C23.24 28.7264 23.4444 28.6099 23.5873 28.5181C23.7301 28.4269 23.9197 28.3148 24.0093 28.2698C24.6884 27.9269 26.4131 26.4044 27.2329 25.4236C27.7477 24.8082 28.6175 23.5885 28.6175 23.4824C28.6175 23.4593 28.6796 23.3538 28.7549 23.2478C28.9406 22.9868 29.5263 21.8297 29.5263 21.7242C29.5263 21.6775 29.5845 21.5352 29.656 21.4077C29.7274 21.2808 29.7856 21.1346 29.7856 21.083C29.7856 21.0313 29.8378 20.8934 29.9016 20.7764C29.9653 20.6593 30.0549 20.4027 30.101 20.206C30.1466 20.0099 30.2098 19.7907 30.2411 19.7192C30.3444 19.4846 30.573 18.2396 30.6472 17.5115C30.7318 16.6769 30.7439 15.1104 30.6714 14.4593C30.5477 13.3538 30.2587 11.9027 30.106 11.6192C30.0724 11.5571 30.0455 11.4494 30.0455 11.3797C30.0455 11.3099 30.0164 11.2346 29.9807 11.2126C29.945 11.1907 29.9159 11.1027 29.9159 11.0176C29.9159 10.9324 29.8867 10.8451 29.851 10.8225C29.8153 10.8005 29.7862 10.7313 29.7862 10.6692C29.7862 10.6071 29.5296 10.0462 29.2159 9.42307C28.3115 7.62582 27.6906 6.76318 26.3351 5.42033C25.5098 4.60274 24.2065 3.53901 23.751 3.31099C23.6615 3.26593 23.5043 3.17307 23.4027 3.10439C23.1268 2.91813 21.7279 2.21813 21.6312 2.21813C21.5851 2.21813 21.4433 2.15989 21.3164 2.08846C21.1895 2.01703 21.0296 1.95879 20.9615 1.95879C20.8933 1.95879 20.8192 1.92967 20.7972 1.89395C20.7752 1.85824 20.6873 1.82912 20.6027 1.82912C20.5181 1.82912 20.4301 1.8 20.4082 1.76428C20.3862 1.72857 20.3109 1.69945 20.2411 1.69945C20.1714 1.69945 20.0637 1.67143 20.0016 1.63736C19.8604 1.55989 19.1878 1.40274 18.5906 1.30824L18.5878 1.30989ZM96.1274 20.1676C97.4516 19.4967 99.2054 19.0445 101.014 18.9082C102.43 18.8016 104.221 18.9187 105.607 19.2088C109.13 19.9456 111.582 22.056 112.589 25.2148C113.545 28.2187 113.342 32.294 112.107 34.8637C111.303 36.5374 109.8 38.0258 108.096 38.8357C106.451 39.6176 104.626 39.972 102.247 39.972C99.8675 39.972 98.1411 39.6341 96.4686 38.8473C94.9785 38.1462 93.834 37.1681 92.9708 35.8577C91.8406 34.1412 91.3483 32.1907 91.3483 29.4275C91.3483 26.9973 91.6823 25.3912 92.5285 23.7511C93.2917 22.272 94.6571 20.9121 96.1268 20.167L96.1274 20.1676ZM109.422 27.6857C109.03 24.3099 107.09 22.289 103.804 21.8357C101.741 21.5511 99.6889 21.8335 98.2038 22.6066C95.9285 23.7912 94.8702 26.2956 95.0389 30.0945C95.1692 33.0203 95.9812 34.7989 97.7301 35.983C99.9093 37.4599 104.152 37.5319 106.563 36.1335C107.171 35.7802 108.146 34.783 108.504 34.1456C108.816 33.5929 109.153 32.6659 109.324 31.8951C109.466 31.2495 109.529 28.5984 109.422 27.6852V27.6857ZM37.0779 26.0027C37.6933 24.7544 38.4186 24.083 39.4867 23.7714C40.0005 23.6214 41.0972 23.6126 41.7192 23.7533L42.1829 23.8582L42.1653 25.328L42.1477 26.7978L41.0444 26.8379C40.1829 26.8692 39.8488 26.9077 39.5192 27.0143C38.3043 27.4066 37.5334 28.233 37.1664 29.5374C37.0263 30.0357 37.0235 30.1291 37.0032 34.8335L36.9823 39.6225H33.6126L33.629 31.8143L33.6455 24.006L35.0164 23.9885L36.3873 23.9709L36.4235 24.2154C36.4433 24.35 36.5109 24.9203 36.573 25.483C36.6439 26.1192 36.7137 26.5055 36.7582 26.5055C36.7977 26.5055 36.9417 26.2791 37.0785 26.0022L37.0779 26.0027ZM42.6356 31.7786C42.6411 26.9604 44.5692 24.3852 48.6439 23.7511C49.5499 23.6104 51.4263 23.6225 52.3214 23.7758C54.8461 24.2077 56.4961 25.6033 57.2642 27.9566C57.5796 28.9231 57.7549 30.2978 57.756 31.8143V32.6099H51.9153H46.0741V32.9181C46.0747 33.3934 46.2549 34.3956 46.4378 34.9418C46.8697 36.2302 47.6373 36.9714 48.8972 37.3159C49.5071 37.4824 50.9252 37.5203 51.5933 37.3879C53.1994 37.0687 54.2225 36.05 54.3703 34.6225L54.4142 34.2006H57.6593L57.6417 34.6549C57.5362 37.3956 55.5659 39.2951 52.2406 39.8626C51.479 39.9929 49.4505 40.0088 48.7027 39.8912C46.8917 39.606 45.5307 38.9659 44.5708 37.9484C43.2516 36.5494 42.6323 34.5742 42.6356 31.7786ZM59.84 27.272C60.2356 25.3736 62.2214 24.0549 65.1933 23.7159C65.9137 23.6335 67.8631 23.6863 68.5736 23.8066C70.1884 24.0808 71.5955 24.7885 72.3082 25.6852C72.8741 26.3978 73.2192 27.4918 73.1093 28.2253L73.0659 28.5192H69.8466L69.8126 28.1418C69.7268 27.1983 69.1093 26.5989 67.8818 26.2681C67.2466 26.0967 65.5005 26.1137 64.8214 26.2983C64.1499 26.4802 63.7235 26.7077 63.4472 27.0308C63.2175 27.2994 63.0576 27.7769 63.1109 28.0374C63.1246 28.106 63.1532 28.2423 63.1735 28.3396C63.2329 28.6225 63.5845 28.9654 64.0626 29.206C64.5664 29.4599 65.9637 29.8918 68.2659 30.506C70.7571 31.1703 71.7307 31.5994 72.523 32.3819C73.2818 33.1308 73.5488 33.8549 73.5406 35.1429C73.5334 36.3703 73.1928 37.2731 72.4329 38.0808C71.223 39.3659 69.2521 39.9786 66.3565 39.9692C64.4065 39.9632 63.1263 39.7121 61.8801 39.0918C61.2219 38.7637 60.8527 38.4912 60.3763 37.9819C59.6818 37.2379 59.3142 36.2863 59.3142 35.2297V34.6879H62.6054L62.6417 35.1659C62.7098 36.0659 63.112 36.6407 63.9488 37.0324C64.5477 37.3126 65.1329 37.4209 66.2587 37.4588C67.4258 37.4984 68.234 37.3714 68.951 37.0357C69.817 36.6302 70.1988 36.078 70.1378 35.3181C70.0472 34.1896 69.4483 33.8352 66.1181 32.9396C64.9159 32.6159 63.6928 32.2758 63.3999 32.1835C61.4598 31.5703 60.2109 30.5148 59.8681 29.1994C59.7516 28.7527 59.7378 27.7659 59.84 27.2731V27.272ZM75.6763 27.272C76.0714 25.3736 78.0576 24.0549 81.0296 23.7159C81.7494 23.6335 83.6994 23.6863 84.4098 23.8066C86.0247 24.0808 87.4312 24.7885 88.1439 25.6852C88.7098 26.3978 89.0554 27.4918 88.9455 28.2253L88.901 28.5192H85.6818L85.6483 28.1418C85.5626 27.1983 84.945 26.5989 83.7175 26.2681C83.0818 26.0967 81.3362 26.1137 80.6571 26.2983C79.9856 26.4802 79.5587 26.7077 79.2829 27.0308C79.0527 27.2994 78.8928 27.7769 78.9455 28.0374C78.9532 28.0725 78.9642 28.1258 78.9757 28.1824C78.9807 28.2077 78.9867 28.2335 78.9917 28.2588C78.9983 28.2874 79.0038 28.3148 79.0087 28.3401C79.0681 28.6231 79.4197 28.9659 79.8977 29.2066C80.4016 29.4604 81.7994 29.8923 84.1016 30.5066C86.5928 31.1709 87.5664 31.6 88.3587 32.3824C89.1175 33.1313 89.3845 33.8555 89.3763 35.1434C89.3692 36.3709 89.0285 37.2736 88.2675 38.0813C87.0582 39.3665 85.0878 39.9791 82.1917 39.9698C80.2411 39.9637 78.9615 39.7126 77.7159 39.0923C77.0565 38.7643 76.6873 38.4918 76.2115 37.9824C75.5175 37.2385 75.1499 36.2868 75.1499 35.2302V34.6885H78.4406L78.4768 35.1665C78.545 36.0665 78.9472 36.6412 79.7834 37.033C80.3823 37.3132 80.967 37.4214 82.0939 37.4593C83.2615 37.4989 84.0686 37.372 84.7862 37.0363C85.6521 36.6308 86.0334 36.0786 85.973 35.3187C85.8823 34.1901 85.2829 33.8357 81.9527 32.9401C80.7505 32.6165 79.5274 32.2764 79.2345 32.1841C77.2944 31.5709 76.0455 30.5154 75.7027 29.2C75.5867 28.7533 75.5725 27.7665 75.6758 27.2736L75.6763 27.272ZM119.592 25.7632C120.389 24.7874 121.77 24.022 123.225 23.7478C123.899 23.6209 125.888 23.6566 126.478 23.806C128.489 24.3143 129.608 25.5104 129.96 27.5247C130.041 27.9907 130.057 29.0231 130.057 33.8522V39.6231H126.751L126.732 34.0874L126.714 28.5516L126.563 28.1352C126.21 27.1544 125.652 26.6956 124.541 26.4703C123.831 26.3264 122.738 26.3681 122.138 26.5615C120.937 26.9494 119.965 27.8967 119.531 29.1038L119.38 29.5258L119.361 34.5747L119.342 39.6236H115.972L115.988 31.8154L116.005 24.0071L117.384 23.9896C118.143 23.9802 118.763 23.9802 118.763 23.9896C118.763 23.9989 118.821 24.4599 118.893 25.0137C118.964 25.5676 119.022 26.0566 119.022 26.1016C119.023 26.2989 119.276 26.1483 119.591 25.7648L119.592 25.7632ZM132.46 31.7786C132.465 26.9604 134.393 24.3852 138.468 23.7511C139.374 23.6104 141.25 23.6225 142.146 23.7758C144.67 24.2077 146.321 25.6033 147.088 27.9566C147.404 28.9231 147.58 30.2978 147.58 31.8143V32.6099H141.74H135.898V32.9181C135.899 33.3934 136.078 34.3956 136.262 34.9418C136.694 36.2302 137.461 36.9714 138.722 37.3159C139.332 37.4824 140.75 37.5203 141.418 37.3879C143.024 37.0687 144.047 36.05 144.195 34.6225L144.238 34.2006H147.483L147.465 34.6549C147.36 37.3956 145.39 39.2951 142.065 39.8626C141.303 39.9929 139.275 40.0088 138.527 39.8912C136.715 39.606 135.355 38.9659 134.395 37.9484C133.076 36.5494 132.456 34.5742 132.46 31.7786ZM53.1862 27.1181C52.7395 26.672 52.2527 26.4132 51.601 26.2753C51.0604 26.1604 49.6807 26.1621 49.1565 26.2775C47.9543 26.5429 47.1637 27.1242 46.667 28.1082C46.4807 28.478 46.2208 29.3945 46.1664 29.8758L46.1219 30.272H54.2703L54.2257 29.7363C54.1258 28.5324 53.8126 27.7434 53.1862 27.1181ZM143.011 27.1181C142.564 26.672 142.077 26.4132 141.426 26.2753C140.886 26.1604 139.505 26.1621 138.981 26.2775C137.779 26.5429 136.988 27.1242 136.492 28.1082C136.305 28.478 136.046 29.3945 135.991 29.8758L135.946 30.272H144.094L144.05 29.7363C143.95 28.5324 143.637 27.7434 143.011 27.1181ZM0.0587175 39.2341V33.1286L4.73289 33.1451L9.40707 33.1615V39.2006L4.73289 39.217L0.0587175 39.2335V39.2341ZM8.30102 38.2593V34.2335H4.73839C1.54938 34.2335 1.17135 34.2445 1.13619 34.3363C1.08399 34.4731 1.08564 37.5742 1.13784 37.9582L1.17905 38.2593H8.30048H8.30102Z" fill="#3F70EB"/>
<path d="M5.25055 16.0483C4.83297 16.1918 4.47143 16.5544 4.35385 16.9467C4.31154 17.0874 4.27802 17.4038 4.27857 17.6494C4.28022 18.2022 4.43077 18.561 4.76868 18.8181C4.99945 18.994 5.05055 19.0049 5.6033 19C6.30714 18.9934 6.74231 18.8472 7.31484 18.4258C7.94451 17.9621 8.04615 17.5742 7.71319 16.9071C7.48681 16.4538 7.12143 16.1071 6.7533 15.9967C6.37473 15.883 5.66044 15.9077 5.2511 16.0483H5.25055Z" fill="#2D71F3"/>
<path fill-rule="evenodd" clip-rule="evenodd" d="M16.6138 9.78079C18.2133 8.85057 20.2941 7.94618 21.9468 7.46376C23.1254 7.1198 23.5946 7.17695 23.916 7.70387C24.0963 7.99947 24.0919 8.69453 23.9067 9.24288C23.7309 9.76431 23.5463 9.94673 22.3556 10.778C21.8397 11.1385 20.9792 11.7473 20.4435 12.1308C19.0105 13.1577 17.8485 13.8522 16.0303 14.7665C13.1276 16.2264 12.4638 16.4478 11.6149 16.2385C11.0567 16.1006 10.6869 15.8945 10.5001 15.6165C10.1968 15.166 10.3611 14.3506 10.8721 13.7676C11.4479 13.1116 14.3397 11.1039 16.6149 9.78024L16.6138 9.78079Z" fill="#2D71F3"/>
<path d="M20.3078 16.0527C18.3918 16.5654 16.0594 17.5813 14.0512 18.7775C12.8308 19.5044 10.1924 21.284 9.50447 21.8445C8.57864 22.5983 8.18084 23.2439 8.25227 23.8775C8.29787 24.2846 8.51436 24.5434 8.99897 24.7703C9.49732 25.0038 10.1231 25.0709 10.6462 24.9467C11.3204 24.7868 14.2264 23.4159 15.7319 22.5472C16.6363 22.0253 17.8512 21.2269 18.8341 20.5082C19.255 20.2005 19.9627 19.6967 20.4056 19.3884C21.421 18.6829 21.6242 18.484 21.8056 18.0176C22.0094 17.4934 22.021 16.6588 21.8286 16.4011C21.4863 15.9417 21.0731 15.8472 20.3078 16.0522V16.0527Z" fill="#FFC20D"/>
<path d="M25.8571 13.65C25.7499 13.6769 25.4933 13.7022 25.2873 13.7066C25.0807 13.711 24.8032 13.7594 24.6708 13.8149C24.1082 14.0495 23.5994 14.7852 23.5906 15.3764C23.5812 16.0132 23.8439 16.239 24.6576 16.2951C25.1032 16.3258 25.2241 16.3066 25.7669 16.1198C26.1021 16.0044 26.4395 15.8522 26.5158 15.7813C26.6752 15.6346 26.8636 14.9638 26.8631 14.5456C26.8631 13.9588 26.3713 13.522 25.8576 13.6506L25.8571 13.65Z" fill="#FF3E13"/>
<path d="M5.25055 16.0483C4.83297 16.1918 4.47143 16.5544 4.35385 16.9467C4.31154 17.0874 4.27802 17.4038 4.27857 17.6494C4.28022 18.2022 4.43077 18.561 4.76868 18.8181C4.99945 18.994 5.05055 19.0049 5.6033 19C6.30714 18.9934 6.74231 18.8472 7.31484 18.4258C7.94451 17.9621 8.04615 17.5742 7.71319 16.9071C7.48681 16.4538 7.12143 16.1071 6.7533 15.9967C6.37473 15.883 5.66044 15.9077 5.2511 16.0483H5.25055Z" fill="#1BDE6C"/>
</g>
<defs>
<clipPath id="clip0_1999_1999">
<rect width="147.582" height="40" fill="white"/>
</clipPath>
</defs>
</svg>
